<svg width="14" height="14" viewBox="0 0 14 14" fill="none" xmlns="http://www.w3.org/2000/svg">
<g clip-path="url(#clip0_1176_2124)">
<path d="M12.7325 0.554688H1.26562C1.07707 0.554688 0.896243 0.62959 0.762916 0.762916C0.62959 0.896243 0.554688 1.07707 0.554688 1.26562V12.7336C0.554688 12.9221 0.62959 13.103 0.762916 13.2363C0.896243 13.3696 1.07707 13.4445 1.26562 13.4445H7.43656V8.45375H5.75875V6.50797H7.43656V5.07297C7.43656 3.40828 8.45375 2.50156 9.93906 2.50156C10.4403 2.49978 10.9412 2.52533 11.4397 2.57812V4.31828H10.4127C9.60437 4.31828 9.44797 4.70219 9.44797 5.26547V6.50797H11.3741L11.1236 8.45375H9.44797V13.4456H12.7292C12.9177 13.4453 13.0983 13.3703 13.2316 13.2371C13.3649 13.1038 13.4399 12.9232 13.4402 12.7347V1.26672C13.4404 1.07854 13.3661 0.897929 13.2335 0.76446C13.1008 0.630991 12.9207 0.555556 12.7325 0.554688Z" fill="black"/>
</g>
<defs>
<clipPath id="clip0_1176_2124">
<rect width="14" height="14" fill="white"/>
</clipPath>
</defs>
</svg>
