<svg width="14" height="14" viewBox="0 0 14 14" fill="none" xmlns="http://www.w3.org/2000/svg">
<path fill-rule="evenodd" clip-rule="evenodd" d="M3.39306 0.789063C2.70261 0.789062 2.04043 1.06327 1.55211 1.5514C1.06379 2.03953 0.789328 2.70161 0.789062 3.39206V10.3361C0.789063 11.0267 1.06341 11.689 1.55176 12.1774C2.0401 12.6657 2.70244 12.9401 3.39306 12.9401H10.3371C11.0275 12.9398 11.6896 12.6653 12.1777 12.177C12.6659 11.6887 12.9401 11.0265 12.9401 10.3361V3.39206C12.9398 2.70179 12.6655 2.03986 12.1774 1.55176C11.6893 1.06366 11.0273 0.789328 10.3371 0.789063H3.39306ZM11.0861 3.39606C11.0861 3.59497 11.007 3.78574 10.8664 3.92639C10.7257 4.06704 10.535 4.14606 10.3361 4.14606C10.1371 4.14606 9.94638 4.06704 9.80573 3.92639C9.66508 3.78574 9.58606 3.59497 9.58606 3.39606C9.58606 3.19715 9.66508 3.00638 9.80573 2.86573C9.94638 2.72508 10.1371 2.64606 10.3361 2.64606C10.535 2.64606 10.7257 2.72508 10.8664 2.86573C11.007 3.00638 11.0861 3.19715 11.0861 3.39606ZM6.86606 4.78406C6.31441 4.78406 5.78536 5.0032 5.39528 5.39328C5.00521 5.78336 4.78606 6.31241 4.78606 6.86406C4.78606 7.41571 5.00521 7.94477 5.39528 8.33484C5.78536 8.72492 6.31441 8.94406 6.86606 8.94406C7.41771 8.94406 7.94677 8.72492 8.33684 8.33484C8.72692 7.94477 8.94606 7.41571 8.94606 6.86406C8.94606 6.31241 8.72692 5.78336 8.33684 5.39328C7.94677 5.0032 7.41771 4.78406 6.86606 4.78406ZM3.78506 6.86406C3.78506 6.0472 4.10956 5.26379 4.68717 4.68617C5.26479 4.10856 6.0482 3.78406 6.86506 3.78406C7.68193 3.78406 8.46534 4.10856 9.04295 4.68617C9.62056 5.26379 9.94506 6.0472 9.94506 6.86406C9.94506 7.68093 9.62056 8.46434 9.04295 9.04195C8.46534 9.61956 7.68193 9.94406 6.86506 9.94406C6.0482 9.94406 5.26479 9.61956 4.68717 9.04195C4.10956 8.46434 3.78506 7.68093 3.78506 6.86406Z" fill="black"/>
</svg>
