<svg width="14" height="14" viewBox="0 0 14 14" fill="none" xmlns="http://www.w3.org/2000/svg">
<path d="M6.9974 12.8307C10.2191 12.8307 12.8307 10.2191 12.8307 6.9974C12.8307 3.77565 10.2191 1.16406 6.9974 1.16406C3.77565 1.16406 1.16406 3.77565 1.16406 6.9974C1.16406 9.33423 2.5384 11.3502 4.5229 12.2812L5.85873 6.00106C5.89295 5.85183 5.98448 5.72204 6.11355 5.63969C6.24262 5.55734 6.3989 5.52903 6.54865 5.56088C6.69841 5.59273 6.82964 5.68218 6.91403 5.80993C6.99842 5.93768 7.0292 6.09349 6.99973 6.24373C6.8399 6.9974 6.6999 7.28906 6.70631 7.63906C6.71623 8.1874 6.86556 8.48023 7.01023 8.6319C7.15781 8.78648 7.37073 8.8699 7.64898 8.86523C7.93306 8.8594 8.25448 8.75965 8.53915 8.57998C9.09273 8.23231 9.33073 7.63615 9.33073 6.9974C9.33034 6.65076 9.25273 6.30856 9.10353 5.99567C8.95433 5.68279 8.73729 5.40708 8.46818 5.18858C8.19908 4.97008 7.88468 4.81428 7.54782 4.73251C7.21096 4.65074 6.86012 4.64505 6.52079 4.71586C6.18146 4.78666 5.86217 4.93218 5.58612 5.14184C5.31008 5.3515 5.08421 5.62003 4.92494 5.92791C4.76567 6.23579 4.677 6.57529 4.66538 6.92174C4.65375 7.26818 4.71946 7.61286 4.85773 7.93073C4.9141 8.07146 4.91347 8.22862 4.85597 8.3689C4.79846 8.50917 4.6886 8.62155 4.54967 8.68222C4.41073 8.74289 4.25363 8.74709 4.11165 8.69392C3.96968 8.64076 3.85397 8.5344 3.78906 8.3974C3.55685 7.86478 3.46089 7.28272 3.50984 6.70375C3.55879 6.12478 3.75111 5.5671 4.06945 5.08103C4.38779 4.59496 4.82213 4.19578 5.3333 3.91953C5.84446 3.64327 6.41636 3.49861 6.9974 3.49861C7.57844 3.49861 8.15033 3.64327 8.6615 3.91953C9.17266 4.19578 9.607 4.59496 9.92534 5.08103C10.2437 5.5671 10.436 6.12478 10.485 6.70375C10.5339 7.28272 10.4379 7.86478 10.2057 8.3974C9.99106 8.89206 9.59906 9.29223 9.1604 9.56815C8.71998 9.84523 8.19381 10.0226 7.66998 10.0319C7.19223 10.0406 6.69465 9.90823 6.2939 9.56056L5.6324 12.6709C6.0699 12.7759 6.52723 12.8313 6.99681 12.8313L6.9974 12.8307Z" fill="black"/>
</svg>
